<mxfile host="app.diagrams.net" agent="Mozilla/5.0 (Windows NT 10.0; Win64; x64) AppleWebKit/537.36 (KHTML, like Gecko) Chrome/138.0.0.0 Safari/537.36 Edg/138.0.0.0" version="28.0.3">
  <diagram name="第 1 页" id="LLHSTULQ7gkONXncfqT1">
    <mxGraphModel dx="1818" dy="1026" grid="1" gridSize="10" guides="1" tooltips="1" connect="1" arrows="1" fold="1" page="1" pageScale="1" pageWidth="1654" pageHeight="2336" math="0" shadow="0">
      <root>
        <mxCell id="0" />
        <mxCell id="1" parent="0" />
        <mxCell id="71F7B3VCoWiLTkJk2E0s-1" value="" style="shape=image;verticalLabelPosition=bottom;labelBackgroundColor=default;verticalAlign=top;aspect=fixed;imageAspect=0;editableCssRules=.*;image=data:image/svg+xml,PHN2ZyB4bWxuczp4bGluaz0iaHR0cDovL3d3dy53My5vcmcvMTk5OS94bGluayIgeG1sbnM9Imh0dHA6Ly93d3cudzMub3JnLzIwMDAvc3ZnIiBoZWlnaHQ9IjE3NSIgd2lkdGg9IjE1MCIgdmVyc2lvbj0iMS4xIiB2aWV3Qm94PSIxMjggNjQgNzY4IDg5NiIgY2xhc3M9Imljb24iPjxwYXRoIGZpbGw9IiMxNjE2MTYiIGQ9Ik04MzIgNjRhNjQgNjQgMCAwIDEgNjQgNjR2NzY4YTY0IDY0IDAgMCAxLTY0IDY0SDE5MmE2NCA2NCAwIDAgMS02NC02NFYzMjEuMjQ4TDQxNy4zMTIgNjRIODMyeiBtMCA2NEg0ODB2MTkyYTk2IDk2IDAgMCAxLTkwLjM2OCA5NS44NEwzODQgNDE2bC0xOTItMC4wMzJWODk2aDY0MFYxMjh6IG0tOTYgNjExLjc3NmEzMiAzMiAwIDAgMSAzLjc0NCA2My44MDhsLTMuNzQ0IDAuMTkySDI4OGEzMiAzMiAwIDAgMS0zLjc0NC02My43NzZMMjg4IDczOS43NzZoNDQ4eiBtMC0xMjhhMzIgMzIgMCAwIDEgMy43NDQgNjMuODA4bC0zLjc0NCAwLjE5MkgyODhhMzIgMzIgMCAwIDEtMy43NDQtNjMuNzc2TDI4OCA2MTEuNzc2aDQ0OHogbTAtMTI4YTMyIDMyIDAgMCAxIDMuNzQ0IDYzLjgwOGwtMy43NDQgMC4xOTJIMjg4YTMyIDMyIDAgMCAxLTMuNzQ0LTYzLjc3NkwyODggNDgzLjc3Nmg0NDh6TTQxNiAxNTAuNzg0bC0yMjQgMTk5LjE2OHYyLjAxNkwzODQgMzUyYTMyIDMyIDAgMCAwIDMxLjc3Ni0yOC4yNTZMNDE2IDMyMFYxNTAuNzg0eiIvPjxwYXRoIGZpbGw9IiMwQTY4QjMiIGQ9Ik02NzIgMTkyYTk2IDk2IDAgMSAxIDAgMTkyIDk2IDk2IDAgMCAxIDAtMTkyeiBtMCA2NGEzMiAzMiAwIDEgMCAwIDY0IDMyIDMyIDAgMCAwIDAtNjR6Ii8+PC9zdmc+;flipH=1;" vertex="1" parent="1">
          <mxGeometry x="327.15" y="316" width="45.71" height="53.33" as="geometry" />
        </mxCell>
        <mxCell id="71F7B3VCoWiLTkJk2E0s-75" style="edgeStyle=orthogonalEdgeStyle;rounded=0;orthogonalLoop=1;jettySize=auto;html=1;exitX=1;exitY=0.75;exitDx=0;exitDy=0;entryX=0;entryY=0.75;entryDx=0;entryDy=0;" edge="1" parent="1" source="71F7B3VCoWiLTkJk2E0s-2" target="71F7B3VCoWiLTkJk2E0s-7">
          <mxGeometry relative="1" as="geometry" />
        </mxCell>
        <mxCell id="71F7B3VCoWiLTkJk2E0s-2" value="" style="shape=image;verticalLabelPosition=bottom;labelBackgroundColor=default;verticalAlign=top;aspect=fixed;imageAspect=0;editableCssRules=.*;image=data:image/svg+xml,PHN2ZyB4bWxuczp4bGluaz0iaHR0cDovL3d3dy53My5vcmcvMTk5OS94bGluayIgeG1sbnM9Imh0dHA6Ly93d3cudzMub3JnLzIwMDAvc3ZnIiBoZWlnaHQ9IjE0NC44Mzk0NTM2OTcyMDQ2IiB3aWR0aD0iMTI2LjczNDE3MzI5Nzg4MjA4IiB2ZXJzaW9uPSIxLjEiIHZpZXdCb3g9IjE4Ny41MzcwMDI1NjM0NzY1NiAxNDEuMjEwOTk4NTM1MTU2MjUgNjQ4Ljg3ODk2NzI4NTE1NjIgNzQxLjU3ODAwMjkyOTY4NzUiIGNsYXNzPSJpY29uIj48cGF0aCBkPSJNNDY1LjY1MSA1NTguMzQ5TDQxOS4zMDMgNTEyIDI4MC4yNTcgNjUxLjA0NiA0MTkuMzAzIDc5MC4wOWw0Ni4zNDgtNDYuMzQ4LTkyLjY5Ny05Mi42OTd6IG05Mi42OTggMTg1LjM5NGw0Ni4zNDggNDYuMzQ4IDEzOS4wNDYtMTM5LjA0NUw2MDQuNjk3IDUxMmwtNDYuMzQ4IDQ2LjM0OSA5Mi42OTcgOTIuNjk3eiBtMjM3LjExOS00NTguMTFsLTEwMy40NzMtMTAzLjQ1Yy0yMi41MjYtMjIuNTI1LTY3LjA0NC00MC45NzItOTguOTA4LTQwLjk3MkgyNDUuNDczYy0zMS44NjUgMC01Ny45MzYgMjYuMDcxLTU3LjkzNiA1Ny45MzZ2NjI1LjcwNmMwIDMxLjg2NSAyNi4wNyA1Ny45MzYgNTcuOTM2IDU3LjkzNkg3NzguNDhjMzEuODY1IDAgNTcuOTM2LTI2LjA3MSA1Ny45MzYtNTcuOTM2VjM4NC41NGMwLTMxLjg2NC0xOC40NDctNzYuMzgyLTQwLjk3Mi05OC45MDd6IG0tMzIuNzY5IDMyLjc2OWMyLjI3MiAyLjI3MSA0LjUyIDUuMDUyIDYuNzIxIDguMjA0SDY1MS4wNDZWMjA4LjIzYzMuMTUxIDIuMjAyIDUuOTMyIDQuNDUgOC4yMDMgNi43MjFsMTAzLjQ3NCAxMDMuNDV6IG0yNy4zOTIgNTA2LjQ1YzAgNi4yODEtNS4zMDYgMTEuNTg4LTExLjU4NyAxMS41ODhIMjQ1LjQ5NmMtNi4yOCAwLTExLjU4Ny01LjMwNy0xMS41ODctMTEuNTg3VjE5OS4xNDdjMC02LjI4IDUuMzA2LTExLjU4NyAxMS41ODctMTEuNTg3SDU5My4xMWMzLjUgMCA3LjQxNiAwLjQ0IDExLjU4NyAxLjIyOHYxODQuMTY2aDE4NC4xNjZjMC43ODggNC4xNzIgMS4yMjggOC4wODggMS4yMjggMTEuNTg3djQ0MC4zMTJ6Ii8+PC9zdmc+;" vertex="1" parent="1">
          <mxGeometry x="326.64" y="447.84000000000003" width="46.71" height="53.33" as="geometry" />
        </mxCell>
        <mxCell id="71F7B3VCoWiLTkJk2E0s-3" value="" style="shape=image;verticalLabelPosition=bottom;labelBackgroundColor=default;verticalAlign=top;aspect=fixed;imageAspect=0;editableCssRules=.*;image=data:image/svg+xml,PHN2ZyB4bWxuczp4bGluaz0iaHR0cDovL3d3dy53My5vcmcvMTk5OS94bGluayIgeG1sbnM9Imh0dHA6Ly93d3cudzMub3JnLzIwMDAvc3ZnIiBoZWlnaHQ9IjIwMCIgd2lkdGg9IjE5OS41ODcwNTkwMjA5OTYxIiB2ZXJzaW9uPSIxLjEiIHZpZXdCb3g9IjAgMCAxMDIxLjg4NTc0MjE4NzUgMTAyNCIgY2xhc3M9Imljb24iPjxwYXRoIGZpbGw9IiM2NjY2NjYiIGQ9Ik01MTAuOTM1NTUxIDEwMjRjLTI4My4xNDM0NTEgMC01MTAuOTM1NTUxLTIyOS45MjA5OTgtNTEwLjkzNTU1MS01MTAuOTM1NTUxQzAgMjI5LjkyMDk5OCAyMjkuOTIwOTk4IDAgNTEwLjkzNTU1MSAwYzI4My4xNDM0NTEgMCA1MTAuOTM1NTUxIDIyOS45MjA5OTggNTEwLjkzNTU1MSA1MTAuOTM1NTUxIDIuMTI4ODk4IDI4My4xNDM0NTEtMjI3Ljc5MjEgNTEzLjA2NDQ0OS01MTAuOTM1NTUxIDUxMy4wNjQ0NDl6IG0wLTQ2LjgzNTc1OWMyNTcuNTk2Njc0IDAgNDY0LjA5OTc5Mi0yMDguNjMyMDE3IDQ2NC4wOTk3OTItNDY0LjA5OTc5MkM5NzcuMTY0MjQxIDI1NS40Njc3NzUgNzY4LjUzMjIyNSA0Ni44MzU3NTkgNTEwLjkzNTU1MSA0Ni44MzU3NTkgMjU1LjQ2Nzc3NSA0Ni44MzU3NTkgNDYuODM1NzU5IDI1NS40Njc3NzUgNDYuODM1NzU5IDUxMC45MzU1NTEgNDYuODM1NzU5IDc2OC41MzIyMjUgMjU1LjQ2Nzc3NSA5NzcuMTY0MjQxIDUxMC45MzU1NTEgOTc3LjE2NDI0MXoiLz48cGF0aCBmaWxsPSIjMTc3MUI5IiBkPSJNMzQwLjYyMzcwMSA2MjEuNjM4MjU0aC0xMjcuNzMzODg4Yy0yMy40MTc4NzkgMC00Mi41Nzc5NjMtMTkuMTYwMDgzLTQyLjU3Nzk2My00Mi41Nzc5NjN2LTEyNy43MzM4ODhjMC0yMy40MTc4NzkgMTkuMTYwMDgzLTQyLjU3Nzk2MyA0Mi41Nzc5NjMtNDIuNTc3OTYyaDEyNy43MzM4ODhjMjMuNDE3ODc5IDAgNDIuNTc3OTYzIDE5LjE2MDA4MyA0Mi41Nzc5NjIgNDIuNTc3OTYydjEyNy43MzM4ODhjMCAyMy40MTc4NzktMTkuMTYwMDgzIDQyLjU3Nzk2My00Mi41Nzc5NjIgNDIuNTc3OTYzek0yMTIuODg5ODEzIDQ0Ny4wNjg2MDdjLTIuMTI4ODk4IDAtNC4yNTc3OTYgMi4xMjg4OTgtNC4yNTc3OTYgNC4yNTc3OTZ2MTI3LjczMzg4OGMwIDIuMTI4ODk4IDIuMTI4ODk4IDQuMjU3Nzk2IDQuMjU3Nzk2IDQuMjU3Nzk2aDEyNy43MzM4ODhjMi4xMjg4OTggMCA0LjI1Nzc5Ni0yLjEyODg5OCA0LjI1Nzc5Ni00LjI1Nzc5NnYtMTI3LjczMzg4OGMwLTIuMTI4ODk4LTIuMTI4ODk4LTQuMjU3Nzk2LTQuMjU3Nzk2LTQuMjU3Nzk2aC0xMjcuNzMzODg4ek01NzQuODAyNDk1IDYyMS42MzgyNTRoLTEyNy43MzM4ODhjLTIzLjQxNzg3OSAwLTQyLjU3Nzk2My0xOS4xNjAwODMtNDIuNTc3OTYzLTQyLjU3Nzk2M3YtMTI3LjczMzg4OGMwLTIzLjQxNzg3OSAxOS4xNjAwODMtNDIuNTc3OTYzIDQyLjU3Nzk2My00Mi41Nzc5NjJoMTI3LjczMzg4OGMyMy40MTc4NzkgMCA0Mi41Nzc5NjMgMTkuMTYwMDgzIDQyLjU3Nzk2MiA0Mi41Nzc5NjJ2MTI3LjczMzg4OGMwIDIzLjQxNzg3OS0xOS4xNjAwODMgNDIuNTc3OTYzLTQyLjU3Nzk2MiA0Mi41Nzc5NjN6TTQ0Ny4wNjg2MDcgNDQ3LjA2ODYwN2MtMi4xMjg4OTggMC00LjI1Nzc5NiAyLjEyODg5OC00LjI1Nzc5NiA0LjI1Nzc5NnYxMjcuNzMzODg4YzAgMi4xMjg4OTggMi4xMjg4OTggNC4yNTc3OTYgNC4yNTc3OTYgNC4yNTc3OTZoMTI3LjczMzg4OGMyLjEyODg5OCAwIDQuMjU3Nzk2LTIuMTI4ODk4IDQuMjU3Nzk2LTQuMjU3Nzk2di0xMjcuNzMzODg4YzAtMi4xMjg4OTgtMi4xMjg4OTgtNC4yNTc3OTYtNC4yNTc3OTYtNC4yNTc3OTZoLTEyNy43MzM4ODh6TTgwOC45ODEyODkgNjIxLjYzODI1NGgtMTI3LjczMzg4OGMtMjMuNDE3ODc5IDAtNDIuNTc3OTYzLTE5LjE2MDA4My00Mi41Nzc5NjItNDIuNTc3OTYzdi0xMjcuNzMzODg4YzAtMjMuNDE3ODc5IDE5LjE2MDA4My00Mi41Nzc5NjMgNDIuNTc3OTYyLTQyLjU3Nzk2MmgxMjcuNzMzODg4YzIzLjQxNzg3OSAwIDQyLjU3Nzk2MyAxOS4xNjAwODMgNDIuNTc3OTYzIDQyLjU3Nzk2MnYxMjcuNzMzODg4YzAgMjMuNDE3ODc5LTE5LjE2MDA4MyA0Mi41Nzc5NjMtNDIuNTc3OTYzIDQyLjU3Nzk2M3pNNjgxLjI0NzQwMSA0NDcuMDY4NjA3Yy0yLjEyODg5OCAwLTQuMjU3Nzk2IDIuMTI4ODk4LTQuMjU3Nzk2IDQuMjU3Nzk2djEyNy43MzM4ODhjMCAyLjEyODg5OCAyLjEyODg5OCA0LjI1Nzc5NiA0LjI1Nzc5NiA0LjI1Nzc5NmgxMjcuNzMzODg4YzIuMTI4ODk4IDAgNC4yNTc3OTYtMi4xMjg4OTggNC4yNTc3OTYtNC4yNTc3OTZ2LTEyNy43MzM4ODhjMC0yLjEyODg5OC0yLjEyODg5OC00LjI1Nzc5Ni00LjI1Nzc5Ni00LjI1Nzc5NmgtMTI3LjczMzg4OHpNODYyLjIwMzc0MiAzNTUuNTI1OTg4aC02ODEuMjQ3NDAxYy0xMi43NzMzODkgMC0yMS4yODg5ODEtOC41MTU1OTMtMjEuMjg4OTgxLTIxLjI4ODk4MnM4LjUxNTU5My0yMS4yODg5ODEgMjEuMjg4OTgxLTIxLjI4ODk4MWg2ODEuMjQ3NDAxYzEyLjc3MzM4OSAwIDIxLjI4ODk4MSA4LjUxNTU5MyAyMS4yODg5ODEgMjEuMjg4OTgxcy0xMC42NDQ0OTEgMjEuMjg4OTgxLTIxLjI4ODk4MSAyMS4yODg5ODJ6TTg2Mi4yMDM3NDIgNzE3LjQzODY2OWgtNjgxLjI0NzQwMWMtMTIuNzczMzg5IDAtMjEuMjg4OTgxLTguNTE1NTkzLTIxLjI4ODk4MS0yMS4yODg5ODFzOC41MTU1OTMtMjEuMjg4OTgxIDIxLjI4ODk4MS0yMS4yODg5ODFoNjgxLjI0NzQwMWMxMi43NzMzODkgMCAyMS4yODg5ODEgOC41MTU1OTMgMjEuMjg4OTgxIDIxLjI4ODk4MXMtMTAuNjQ0NDkxIDIxLjI4ODk4MS0yMS4yODg5ODEgMjEuMjg4OTgxeiIvPjwvc3ZnPg==;" vertex="1" parent="1">
          <mxGeometry x="638" y="352" width="50" height="50" as="geometry" />
        </mxCell>
        <mxCell id="71F7B3VCoWiLTkJk2E0s-85" style="edgeStyle=orthogonalEdgeStyle;rounded=0;orthogonalLoop=1;jettySize=auto;html=1;exitX=1;exitY=0.75;exitDx=0;exitDy=0;entryX=0;entryY=0.5;entryDx=0;entryDy=0;" edge="1" parent="1" source="71F7B3VCoWiLTkJk2E0s-4" target="71F7B3VCoWiLTkJk2E0s-10">
          <mxGeometry relative="1" as="geometry" />
        </mxCell>
        <mxCell id="71F7B3VCoWiLTkJk2E0s-4" value="" style="shape=image;verticalLabelPosition=bottom;labelBackgroundColor=default;verticalAlign=top;aspect=fixed;imageAspect=0;editableCssRules=.*;image=data:image/svg+xml,PHN2ZyB4bWxuczp4bGluaz0iaHR0cDovL3d3dy53My5vcmcvMTk5OS94bGluayIgeG1sbnM9Imh0dHA6Ly93d3cudzMub3JnLzIwMDAvc3ZnIiBoZWlnaHQ9IjIwMCIgd2lkdGg9IjIwMCIgdmVyc2lvbj0iMS4xIiB2aWV3Qm94PSIwIDAgMTAyNCAxMDI0IiBjbGFzcz0iaWNvbiI+PHBhdGggZmlsbD0iIzY2NjY2NiIgZD0iTTY5MC42ODggMGM1LjYzMiAwIDkuMjY3MiAxLjAyNCAxMy4zMTIgMy4xMjMyIDMuNTg0IDEuNTM2IDYuNjU2IDMuNTg0IDEwLjc1MiA2LjY1NiA1LjYzMiA0LjYwOCAxNC4zODcyIDExLjI2NCAyNC41MjQ4IDE5Ljk2OCAxNy45MiAxNS4zNiA0MS45MzI4IDM2Ljg2NCA3MS4xNjggNjIuODczNmE0My45Mjk2IDQzLjkyOTYgMCAwIDAgNS4xNzEyIDQuNjA4YzIyLjAxNiAyMC4wMTkyIDQ0LjU0NCA0MC45MDg4IDY3LjU4NCA2MS45MDA4bDIyLjAxNiAyMC40OGM0LjA5NiA0LjA5NiA2LjY1NiA2LjY1NiA4LjE5MiA3LjY4IDYuMzQ4OCA2LjA5MjggOC45NiAxNC42OTQ0IDcuNTc3NiAyMi44MzUydjI1MS43NTA0SDEwMjR2NDM0LjczOTJoLTEwMi45MTJWMTAyNEgyMjkuODM2OGExMjcuODk3NiAxMjcuODk3NiAwIDAgMS0xMjcuODk3Ni0xMjcuMzg1NkgwVjQ2MS44NzUyaDEwMS44ODhWMS40ODQ4aDQ4Ni4zNDg4YzE0LjMzNiAwIDI1LjYgMTEuMjY0IDI1LjYgMjUuNiAwIDE0LjQzODQtMTEuMjY0IDI1LjY1MTItMjUuNiAyNS42NTEyaC00MzUuMnY0MDguNzgwOEgxNTMuNnYwLjUxMmg3MTYuMjg4VjI1Ni4zMDcyaC0yMDQuOFYyNi4xMTJjMC0xNC4zMzYgMTEuMjY0LTI1LjYgMjUuNzAyNC0yNi4xMTJ6IG0xNzkuMTQ4OCA4OTYuNjE0NGgtNzE2LjhjMC4yNTYgNDIuMjQgMzQuNDU3NiA3Ni4yODggNzYuNzQ4OCA3Ni4yODhoNjQwdi03Ni4yODh6TTI4Ny4zODU2IDU0NS4wMjRIMjA2LjM4NzJjLTIwLjk5MiAxLjA3NTItMzIgMTEuNTcxMi0zMy4wNzUyIDMxLjM4NTZ2MjM3LjgyNGMxLjA3NTIgMTkuODE0NCAxMi4xMzQ0IDMwLjI1OTIgMzMuMDc1MiAzMS4zODU2aDg3LjYwMzJjNjIuODczNi0yLjIwMTYgOTUuMzg1Ni0zMy4wNzUyIDk3LjU4NzItOTIuNTE4NC0zLjMyOC0zOC41MDI0LTI0LjgzMi02Mi4yMDgtNjQuNTEyLTcxLjAxNDR2LTEuNjM4NGMyNi40NzA0LTExLjAwOCAzOS42OC0zMS4zODU2IDM5LjY4LTYxLjEzMjgtMy4yNzY4LTQ2LjIzMzYtMjkuNzQ3Mi03MS4wMTQ0LTc5LjM2LTc0LjI5MTJ6IG0yMDUuODI0LTMuMzI4Yy0xOS44NjU2IDEuMTI2NC0zMC4zNjE2IDEyLjEzNDQtMzEuNDM2OCAzMy4wMjR2MjQxLjE1MmMxLjA3NTIgMTkuODE0NCAxMS41NzEyIDI5LjY5NiAzMS4zODU2IDI5LjY5NiAxOS44NjU2IDAgMzAuMzEwNC05Ljg4MTYgMzEuNDM2OC0yOS42OTZ2LTI0MS4xNTJjLTEuMTI2NC0yMC44ODk2LTExLjU3MTItMzEuODk3Ni0zMS40MzY4LTMzLjAyNHogbTMzOC4wMjI0IDBjLTE5LjgxNDQgMS4xMjY0LTMwLjMxMDQgMTIuMTM0NC0zMS40MzY4IDMzLjAyNHYxNjAuMjU2aC0xLjYzODRsLTEzMy45MzkyLTE3OC4zODA4YTM2LjI0OTYgMzYuMjQ5NiAwIDAgMC0yNi40NzA0LTE0Ljg0OGMtMTkuODE0NCAxLjAyNC0zMC4zMTA0IDEyLjA4MzItMzEuMzg1NiAzMi45NzI4djI0MS4xNTJjMS4wNzUyIDE5LjgxNDQgMTEuNTcxMiAyOS42OTYgMzEuMzg1NiAyOS42OTYgMTkuODY1NiAwIDMwLjM2MTYtOS44ODE2IDMxLjQzNjgtMjkuNjk2di0xNTguNTY2NGgxLjYzODRsMTMzLjkzOTIgMTc2Ljc0MjRjNi42NTYgNy42OCAxNS40NjI0IDExLjU3MTIgMjYuNDcwNCAxMS41NzEyIDE5Ljg2NTYgMCAzMC4zMTA0LTkuOTMyOCAzMS40MzY4LTI5Ljc0NzJ2LTI0MS4xNTJjLTEuMTI2NC0yMC44ODk2LTExLjU3MTItMzEuODk3Ni0zMS40MzY4LTMzLjAyNHpNMjgwLjc4MDggNzIwLjA3NjhjMjguNjcyIDAgNDMuNTIgMTEuMDA4IDQ0LjY0NjQgMzMuMDI0LTEuMTI2NCAyMy4xNDI0LTE0LjMzNiAzNS4yMjU2LTM5LjY4IDM2LjM1MmgtNDkuNjY0di02OS4zNzZoNDQuNjk3NnogbS0xMS41NzEyLTExOC44ODY0YzIyLjAxNiAxLjA3NTIgMzMuNjM4NCAxMS4wMDggMzQuNzEzNiAyOS42OTYtMS4wNzUyIDIwLjk0MDgtMTIuNjk3NiAzMS45NDg4LTM0LjcxMzYgMzMuMDI0aC0zMy4wNzUydi02Mi43MmgzMy4wNzUyek03MTYuMzkwNCA3Ny44MjR2MTI4LjI1NmgxNDIuMTgyNGEyNzMuNjEyOCAyNzMuNjEyOCAwIDAgMC0xMC42NDk2LTkuNzI4Yy0yMi41MjgtMjAuOTkyLTQ1LjU2OC00MS44ODE2LTY3LjA3Mi02MS40NC0yLjU2LTIuNDU3Ni0yLjU2LTIuNDU3Ni01LjEyLTQuNjA4LTIzLjQ0OTYtMjAuODM4NC00My4zMTUyLTM4LjYwNDgtNTkuMzkyLTUyLjQ4eiIvPjwvc3ZnPg==;" vertex="1" parent="1">
          <mxGeometry x="641.17" y="454.84" width="43.66" height="43.66" as="geometry" />
        </mxCell>
        <mxCell id="71F7B3VCoWiLTkJk2E0s-80" style="edgeStyle=orthogonalEdgeStyle;rounded=0;orthogonalLoop=1;jettySize=auto;html=1;exitX=0.5;exitY=1;exitDx=0;exitDy=0;entryX=0.5;entryY=1;entryDx=0;entryDy=0;" edge="1" parent="1" source="71F7B3VCoWiLTkJk2E0s-7" target="71F7B3VCoWiLTkJk2E0s-10">
          <mxGeometry relative="1" as="geometry" />
        </mxCell>
        <mxCell id="71F7B3VCoWiLTkJk2E0s-81" style="edgeStyle=orthogonalEdgeStyle;rounded=0;orthogonalLoop=1;jettySize=auto;html=1;exitX=1;exitY=0.75;exitDx=0;exitDy=0;entryX=0;entryY=0.75;entryDx=0;entryDy=0;" edge="1" parent="1" source="71F7B3VCoWiLTkJk2E0s-7" target="71F7B3VCoWiLTkJk2E0s-4">
          <mxGeometry relative="1" as="geometry" />
        </mxCell>
        <mxCell id="71F7B3VCoWiLTkJk2E0s-7" value="" style="rounded=0;whiteSpace=wrap;html=1;fillColor=#E6E6E6;" vertex="1" parent="1">
          <mxGeometry x="427.66" y="280" width="160" height="277" as="geometry" />
        </mxCell>
        <mxCell id="71F7B3VCoWiLTkJk2E0s-70" value="" style="edgeStyle=orthogonalEdgeStyle;rounded=0;orthogonalLoop=1;jettySize=auto;html=1;" edge="1" parent="1" source="71F7B3VCoWiLTkJk2E0s-10" target="71F7B3VCoWiLTkJk2E0s-63">
          <mxGeometry relative="1" as="geometry" />
        </mxCell>
        <mxCell id="71F7B3VCoWiLTkJk2E0s-10" value="&lt;div&gt;Reachability / Unreachability&lt;/div&gt;Analysis and Scheduing" style="rounded=0;whiteSpace=wrap;html=1;fontStyle=1;fillColor=#E6E6E6;" vertex="1" parent="1">
          <mxGeometry x="770" y="497" width="280" height="60" as="geometry" />
        </mxCell>
        <mxCell id="71F7B3VCoWiLTkJk2E0s-74" style="edgeStyle=orthogonalEdgeStyle;rounded=0;orthogonalLoop=1;jettySize=auto;html=1;exitX=0;exitY=0.5;exitDx=0;exitDy=0;entryX=0.5;entryY=0;entryDx=0;entryDy=0;" edge="1" parent="1" source="71F7B3VCoWiLTkJk2E0s-11" target="71F7B3VCoWiLTkJk2E0s-3">
          <mxGeometry relative="1" as="geometry" />
        </mxCell>
        <mxCell id="71F7B3VCoWiLTkJk2E0s-11" value="" style="rounded=0;whiteSpace=wrap;html=1;fillColor=#E6E6E6;" vertex="1" parent="1">
          <mxGeometry x="770" y="280" width="280" height="100" as="geometry" />
        </mxCell>
        <mxCell id="71F7B3VCoWiLTkJk2E0s-16" value="&lt;b&gt;Source Code&lt;/b&gt;" style="text;html=1;align=center;verticalAlign=middle;whiteSpace=wrap;rounded=0;" vertex="1" parent="1">
          <mxGeometry x="300" y="496.16999999999996" width="100" height="30" as="geometry" />
        </mxCell>
        <mxCell id="71F7B3VCoWiLTkJk2E0s-17" value="&lt;b&gt;Code&amp;nbsp;&lt;/b&gt;&lt;b&gt;Target&lt;/b&gt;" style="text;html=1;align=center;verticalAlign=middle;whiteSpace=wrap;rounded=0;" vertex="1" parent="1">
          <mxGeometry x="300.51" y="365" width="100" height="30" as="geometry" />
        </mxCell>
        <mxCell id="71F7B3VCoWiLTkJk2E0s-23" value="&lt;b&gt;Instrumented&lt;/b&gt;&lt;div&gt;&lt;b&gt;Program&lt;/b&gt;&lt;/div&gt;" style="text;html=1;align=center;verticalAlign=middle;whiteSpace=wrap;rounded=0;" vertex="1" parent="1">
          <mxGeometry x="613" y="498.50000000000006" width="100" height="30" as="geometry" />
        </mxCell>
        <mxCell id="71F7B3VCoWiLTkJk2E0s-84" style="edgeStyle=orthogonalEdgeStyle;rounded=0;orthogonalLoop=1;jettySize=auto;html=1;exitX=0.5;exitY=1;exitDx=0;exitDy=0;" edge="1" parent="1" source="71F7B3VCoWiLTkJk2E0s-30">
          <mxGeometry relative="1" as="geometry">
            <mxPoint x="662.8333333333335" y="450" as="targetPoint" />
          </mxGeometry>
        </mxCell>
        <mxCell id="71F7B3VCoWiLTkJk2E0s-30" value="&lt;b&gt;Seed Queue&lt;/b&gt;" style="text;html=1;align=center;verticalAlign=middle;whiteSpace=wrap;rounded=0;" vertex="1" parent="1">
          <mxGeometry x="613" y="398" width="100" height="30" as="geometry" />
        </mxCell>
        <mxCell id="71F7B3VCoWiLTkJk2E0s-31" value="" style="verticalLabelPosition=bottom;verticalAlign=top;html=1;shape=mxgraph.basic.layered_rect;dx=10;outlineConnect=0;whiteSpace=wrap;" vertex="1" parent="1">
          <mxGeometry x="790" y="300" width="50" height="28.17" as="geometry" />
        </mxCell>
        <mxCell id="71F7B3VCoWiLTkJk2E0s-32" value="" style="verticalLabelPosition=bottom;verticalAlign=top;html=1;shape=mxgraph.basic.layered_rect;dx=10;outlineConnect=0;whiteSpace=wrap;" vertex="1" parent="1">
          <mxGeometry x="870" y="300" width="50" height="28.17" as="geometry" />
        </mxCell>
        <mxCell id="71F7B3VCoWiLTkJk2E0s-33" value="" style="verticalLabelPosition=bottom;verticalAlign=top;html=1;shape=mxgraph.basic.layered_rect;dx=10;outlineConnect=0;whiteSpace=wrap;" vertex="1" parent="1">
          <mxGeometry x="950" y="300" width="50" height="28.17" as="geometry" />
        </mxCell>
        <mxCell id="71F7B3VCoWiLTkJk2E0s-34" value="&lt;b&gt;Path Seed Pool&lt;/b&gt;" style="text;html=1;align=center;verticalAlign=middle;whiteSpace=wrap;rounded=0;" vertex="1" parent="1">
          <mxGeometry x="805" y="347" width="180" height="30" as="geometry" />
        </mxCell>
        <mxCell id="71F7B3VCoWiLTkJk2E0s-59" value="&lt;b&gt;Constraint Extraction&lt;/b&gt;" style="text;html=1;align=center;verticalAlign=middle;whiteSpace=wrap;rounded=0;" vertex="1" parent="1">
          <mxGeometry x="435.32" y="512" width="144.68" height="30" as="geometry" />
        </mxCell>
        <mxCell id="71F7B3VCoWiLTkJk2E0s-62" style="edgeStyle=orthogonalEdgeStyle;rounded=0;orthogonalLoop=1;jettySize=auto;html=1;exitX=0.5;exitY=1;exitDx=0;exitDy=0;" edge="1" parent="1" source="71F7B3VCoWiLTkJk2E0s-60" target="71F7B3VCoWiLTkJk2E0s-61">
          <mxGeometry relative="1" as="geometry" />
        </mxCell>
        <mxCell id="71F7B3VCoWiLTkJk2E0s-60" value="Graph Construction" style="rounded=1;whiteSpace=wrap;html=1;fontStyle=1" vertex="1" parent="1">
          <mxGeometry x="447.65999999999997" y="312.65999999999997" width="120" height="60" as="geometry" />
        </mxCell>
        <mxCell id="71F7B3VCoWiLTkJk2E0s-61" value="Reverse Data&amp;nbsp;&lt;div&gt;Flow Analysis&lt;/div&gt;" style="rounded=1;whiteSpace=wrap;html=1;fontStyle=1" vertex="1" parent="1">
          <mxGeometry x="447.65999999999997" y="436.17" width="120" height="60" as="geometry" />
        </mxCell>
        <mxCell id="71F7B3VCoWiLTkJk2E0s-71" style="edgeStyle=orthogonalEdgeStyle;rounded=0;orthogonalLoop=1;jettySize=auto;html=1;exitX=0.5;exitY=0;exitDx=0;exitDy=0;entryX=0.5;entryY=1;entryDx=0;entryDy=0;startArrow=classic;startFill=1;" edge="1" parent="1" source="71F7B3VCoWiLTkJk2E0s-63" target="71F7B3VCoWiLTkJk2E0s-11">
          <mxGeometry relative="1" as="geometry" />
        </mxCell>
        <mxCell id="71F7B3VCoWiLTkJk2E0s-73" style="edgeStyle=orthogonalEdgeStyle;rounded=0;orthogonalLoop=1;jettySize=auto;html=1;exitX=0;exitY=0.5;exitDx=0;exitDy=0;entryX=1;entryY=0.5;entryDx=0;entryDy=0;" edge="1" parent="1" source="71F7B3VCoWiLTkJk2E0s-63" target="71F7B3VCoWiLTkJk2E0s-3">
          <mxGeometry relative="1" as="geometry">
            <Array as="points">
              <mxPoint x="740" y="439" />
              <mxPoint x="740" y="377" />
            </Array>
          </mxGeometry>
        </mxCell>
        <mxCell id="71F7B3VCoWiLTkJk2E0s-63" value="Mutation" style="rounded=0;whiteSpace=wrap;html=1;fontStyle=1" vertex="1" parent="1">
          <mxGeometry x="835" y="423.84000000000003" width="150" height="30" as="geometry" />
        </mxCell>
        <mxCell id="71F7B3VCoWiLTkJk2E0s-64" value="&lt;span&gt;ICFG&lt;/span&gt;" style="text;html=1;align=center;verticalAlign=middle;whiteSpace=wrap;rounded=0;fontStyle=0" vertex="1" parent="1">
          <mxGeometry x="437.65999999999997" y="390" width="100" height="30" as="geometry" />
        </mxCell>
        <mxCell id="71F7B3VCoWiLTkJk2E0s-65" value="&lt;span&gt;CG&lt;/span&gt;" style="text;html=1;align=center;verticalAlign=middle;whiteSpace=wrap;rounded=0;fontStyle=0" vertex="1" parent="1">
          <mxGeometry x="480" y="390" width="100" height="30" as="geometry" />
        </mxCell>
        <mxCell id="71F7B3VCoWiLTkJk2E0s-66" value="&lt;span&gt;Path1&lt;/span&gt;" style="text;html=1;align=center;verticalAlign=middle;whiteSpace=wrap;rounded=0;fontStyle=0" vertex="1" parent="1">
          <mxGeometry x="760" y="295" width="100" height="30" as="geometry" />
        </mxCell>
        <mxCell id="71F7B3VCoWiLTkJk2E0s-67" value="&lt;span&gt;Path2&lt;/span&gt;" style="text;html=1;align=center;verticalAlign=middle;whiteSpace=wrap;rounded=0;fontStyle=0" vertex="1" parent="1">
          <mxGeometry x="840" y="295" width="100" height="30" as="geometry" />
        </mxCell>
        <mxCell id="71F7B3VCoWiLTkJk2E0s-68" value="&lt;span&gt;Path3&lt;/span&gt;" style="text;html=1;align=center;verticalAlign=middle;whiteSpace=wrap;rounded=0;fontStyle=0" vertex="1" parent="1">
          <mxGeometry x="920" y="296" width="100" height="30" as="geometry" />
        </mxCell>
        <mxCell id="71F7B3VCoWiLTkJk2E0s-77" style="edgeStyle=orthogonalEdgeStyle;rounded=0;orthogonalLoop=1;jettySize=auto;html=1;exitX=1;exitY=0.75;exitDx=0;exitDy=0;entryX=-0.004;entryY=0.273;entryDx=0;entryDy=0;entryPerimeter=0;" edge="1" parent="1" source="71F7B3VCoWiLTkJk2E0s-1" target="71F7B3VCoWiLTkJk2E0s-7">
          <mxGeometry relative="1" as="geometry" />
        </mxCell>
        <mxCell id="71F7B3VCoWiLTkJk2E0s-89" style="edgeStyle=orthogonalEdgeStyle;rounded=0;orthogonalLoop=1;jettySize=auto;html=1;exitX=1;exitY=0.5;exitDx=0;exitDy=0;entryX=1.001;entryY=0.435;entryDx=0;entryDy=0;entryPerimeter=0;" edge="1" parent="1" source="71F7B3VCoWiLTkJk2E0s-10" target="71F7B3VCoWiLTkJk2E0s-11">
          <mxGeometry relative="1" as="geometry" />
        </mxCell>
        <mxCell id="71F7B3VCoWiLTkJk2E0s-90" value="&lt;span&gt;Constraint variable group&lt;/span&gt;" style="text;html=1;align=center;verticalAlign=middle;whiteSpace=wrap;rounded=0;fontStyle=0" vertex="1" parent="1">
          <mxGeometry x="610" y="570" width="160" height="30" as="geometry" />
        </mxCell>
        <mxCell id="71F7B3VCoWiLTkJk2E0s-92" value="&lt;b&gt;③&lt;/b&gt;" style="text;html=1;align=center;verticalAlign=middle;whiteSpace=wrap;rounded=0;" vertex="1" parent="1">
          <mxGeometry x="670" y="305" width="100" height="30" as="geometry" />
        </mxCell>
        <mxCell id="71F7B3VCoWiLTkJk2E0s-93" value="&lt;b&gt;①&lt;/b&gt;" style="text;html=1;align=center;verticalAlign=middle;whiteSpace=wrap;rounded=0;" vertex="1" parent="1">
          <mxGeometry x="870" y="390" width="100" height="30" as="geometry" />
        </mxCell>
        <mxCell id="71F7B3VCoWiLTkJk2E0s-94" value="②" style="text;html=1;align=center;verticalAlign=middle;whiteSpace=wrap;rounded=0;" vertex="1" parent="1">
          <mxGeometry x="1030" y="406.17" width="100" height="30" as="geometry" />
        </mxCell>
      </root>
    </mxGraphModel>
  </diagram>
</mxfile>
